<svg width="57" height="56" viewBox="0 0 57 56" fill="none" xmlns="http://www.w3.org/2000/svg">
<ellipse rx="1.27128" ry="2.13935" transform="matrix(-0.17713 0.984187 -0.984135 -0.177424 2.67701 29.6407)" fill="black"/>
<ellipse rx="1.27103" ry="2.56428" transform="matrix(-0.516814 0.856098 -0.855707 -0.517461 6.4849 23.6377)" fill="black"/>
<ellipse rx="1.27103" ry="2.56428" transform="matrix(-0.516814 0.856098 -0.855707 -0.517461 12.5947 40.0356)" fill="black"/>
<ellipse rx="1.27103" ry="2.56428" transform="matrix(-0.516814 0.856098 -0.855707 -0.517461 29.2372 41.2153)" fill="black"/>
<ellipse rx="1.27103" ry="2.56428" transform="matrix(-0.516814 0.856098 -0.855707 -0.517461 38.7032 53.5849)" fill="black"/>
<path d="M11.149 15.5087C9.93711 14.7759 9.62115 12.6371 9.98394 12.0362C10.3467 11.4352 11.6232 11.5421 12.8351 12.2749C14.047 13.0078 16.9886 18.1261 16.6258 18.727C16.263 19.328 12.3608 16.2415 11.149 15.5087Z" fill="black"/>
<path d="M15.9562 33.0626C14.7443 32.3298 14.4283 30.1911 14.7911 29.5901C15.1539 28.9892 16.4304 29.0961 17.6423 29.8289C18.8541 30.5617 21.7957 35.68 21.4329 36.281C21.0702 36.8819 17.168 33.7955 15.9562 33.0626Z" fill="black"/>
<path d="M33.9001 33.0875C32.6883 32.3547 32.3723 30.216 32.7351 29.615C33.0979 29.0141 34.3744 29.121 35.5862 29.8538C36.7981 30.5866 39.7397 35.7049 39.3769 36.3059C39.0141 36.9068 35.112 33.8204 33.9001 33.0875Z" fill="black"/>
<path d="M43.3666 45.4572C42.1548 44.7243 41.8388 42.5856 42.2016 41.9846C42.5644 41.3837 43.8409 41.4906 45.0528 42.2234C46.2646 42.9563 49.2062 48.0746 48.8434 48.6755C48.4806 49.2765 44.5785 46.19 43.3666 45.4572Z" fill="black"/>
<path d="M19.5407 7.18067C18.7259 6.68791 18.5134 5.24978 18.7573 4.84569C19.0013 4.4416 19.8596 4.51349 20.6745 5.00626C21.4894 5.49902 23.4673 8.94065 23.2234 9.34474C22.9795 9.74883 20.3556 7.67344 19.5407 7.18067Z" fill="black"/>
<path d="M24.3479 24.7366C23.533 24.2438 23.3206 22.8057 23.5645 22.4016C23.8085 21.9975 24.6668 22.0694 25.4817 22.5622C26.2966 23.0549 28.2745 26.4966 28.0306 26.9006C27.7866 27.3047 25.1628 25.2294 24.3479 24.7366Z" fill="black"/>
<path d="M42.2931 24.7605C41.4782 24.2677 41.2658 22.8296 41.5097 22.4255C41.7537 22.0214 42.612 22.0933 43.4269 22.5861C44.2417 23.0789 46.2197 26.5205 45.9758 26.9246C45.7318 27.3287 43.108 25.2533 42.2931 24.7605Z" fill="black"/>
<path d="M51.759 37.1279C50.9441 36.6352 50.7317 35.197 50.9756 34.793C51.2196 34.3889 52.0779 34.4608 52.8928 34.9535C53.7077 35.4463 55.6856 38.8879 55.4417 39.292C55.1977 39.6961 52.5739 37.6207 51.759 37.1279Z" fill="black"/>
<path d="M27.2689 2.93544C26.3717 2.61661 25.8749 1.25055 26.0327 0.805644C26.1905 0.360734 27.0458 0.25852 27.943 0.577344C28.8402 0.896167 31.4688 3.86976 31.311 4.31467C31.1532 4.75958 28.1661 3.25426 27.2689 2.93544Z" fill="black"/>
<path d="M35.3813 18.7675C34.4841 18.4486 33.9872 17.0826 34.145 16.6377C34.3029 16.1928 35.1581 16.0906 36.0553 16.4094C36.9525 16.7282 39.5812 19.7018 39.4233 20.1467C39.2655 20.5916 36.2785 19.0863 35.3813 18.7675Z" fill="black"/>
</svg>
